<svg width="680" height="980" viewBox="0 0 680 980" xmlns="http://www.w3.org/2000/svg" style="background:#ffffff;font-family:Arial,sans-serif">
<defs>
  <marker id="arrow" viewBox="0 0 10 10" refX="8" refY="5" markerWidth="6" markerHeight="6" orient="auto-start-reverse">
    <path d="M2 1L8 5L2 9" fill="none" stroke="context-stroke" stroke-width="1.5" stroke-linecap="round" stroke-linejoin="round"/>
  </marker>
</defs>

<!-- Internet -->
<rect x="255" y="20" width="170" height="40" rx="8" fill="#f1efe8" stroke="#5f5e5a" stroke-width="0.5"/>
<text x="340" y="45" text-anchor="middle" font-size="13" font-weight="600" fill="#2c2c2a">Internet / ISP</text>
<line x1="340" y1="60" x2="340" y2="82" stroke="#5f5e5a" stroke-width="1" marker-end="url(#arrow)"/>

<!-- Eero -->
<rect x="270" y="82" width="140" height="44" rx="8" fill="#f1efe8" stroke="#5f5e5a" stroke-width="0.5"/>
<text x="340" y="100" text-anchor="middle" font-size="13" font-weight="600" fill="#2c2c2a">Eero AP</text>
<text x="340" y="117" text-anchor="middle" font-size="11" fill="#5f5e5a">WAN DHCP</text>
<line x1="340" y1="126" x2="340" y2="144" stroke="#5f5e5a" stroke-width="1" marker-end="url(#arrow)"/>

<!-- Edge Router -->
<rect x="210" y="144" width="260" height="52" rx="8" fill="#e6f1fb" stroke="#185fa5" stroke-width="0.5"/>
<text x="340" y="165" text-anchor="middle" font-size="13" font-weight="600" fill="#0c447c">Cisco 1921 — Edge Router</text>
<text x="340" y="184" text-anchor="middle" font-size="11" fill="#185fa5">192.168.168.168 · NAT/PAT · WAN ACL · NTP Master</text>
<line x1="340" y1="196" x2="340" y2="224" stroke="#185fa5" stroke-width="1.5" marker-end="url(#arrow)"/>
<text x="352" y="214" font-size="11" fill="#5f5e5a">Trunk</text>

<!-- Core Switch -->
<rect x="170" y="224" width="340" height="52" rx="8" fill="#e1f5ee" stroke="#0f6e56" stroke-width="0.5"/>
<text x="340" y="245" text-anchor="middle" font-size="13" font-weight="600" fill="#085041">Cisco WS-C3750X-48P — Core Switch</text>
<text x="340" y="263" text-anchor="middle" font-size="11" fill="#0f6e56">192.168.168.1 · OSPF DR · Inter-VLAN Routing · PoE</text>

<!-- Core to R1 -->
<line x1="240" y1="276" x2="108" y2="334" stroke="#888780" stroke-width="1" marker-end="url(#arrow)"/>
<!-- Core to R3 -->
<line x1="300" y1="276" x2="254" y2="334" stroke="#888780" stroke-width="1" marker-end="url(#arrow)"/>
<!-- Core to R4 -->
<line x1="400" y1="276" x2="446" y2="334" stroke="#888780" stroke-width="1" marker-end="url(#arrow)"/>
<!-- Core to Access -->
<line x1="460" y1="276" x2="570" y2="334" stroke="#888780" stroke-width="1" marker-end="url(#arrow)"/>

<!-- HSRP label -->
<text x="340" y="308" text-anchor="middle" font-size="11" fill="#5f5e5a">HSRP VIP: 192.168.168.254 (Active: R1 / Standby: R3)</text>

<!-- R1 -->
<rect x="30" y="334" width="156" height="64" rx="8" fill="#e6f1fb" stroke="#185fa5" stroke-width="0.5"/>
<text x="108" y="354" text-anchor="middle" font-size="13" font-weight="600" fill="#0c447c">R1 — Cisco 2811</text>
<text x="108" y="371" text-anchor="middle" font-size="11" fill="#185fa5">192.168.168.2</text>
<text x="108" y="387" text-anchor="middle" font-size="11" fill="#185fa5">HSRP Active · BDR · AS1</text>

<!-- R3 -->
<rect x="178" y="334" width="152" height="64" rx="8" fill="#e6f1fb" stroke="#185fa5" stroke-width="0.5"/>
<text x="254" y="354" text-anchor="middle" font-size="13" font-weight="600" fill="#0c447c">R3 — Cisco 2811</text>
<text x="254" y="371" text-anchor="middle" font-size="11" fill="#185fa5">192.168.168.3</text>
<text x="254" y="387" text-anchor="middle" font-size="11" fill="#185fa5">HSRP Standby · AS3</text>

<!-- R4 -->
<rect x="370" y="334" width="152" height="64" rx="8" fill="#e6f1fb" stroke="#185fa5" stroke-width="0.5"/>
<text x="446" y="354" text-anchor="middle" font-size="13" font-weight="600" fill="#0c447c">R4 — Cisco 2811</text>
<text x="446" y="371" text-anchor="middle" font-size="11" fill="#185fa5">192.168.168.4</text>
<text x="446" y="387" text-anchor="middle" font-size="11" fill="#185fa5">DROTHER · AS4</text>

<!-- Access Switches -->
<rect x="522" y="334" width="128" height="64" rx="8" fill="#e1f5ee" stroke="#0f6e56" stroke-width="0.5"/>
<text x="586" y="354" text-anchor="middle" font-size="13" font-weight="600" fill="#085041">Access SW 01–04</text>
<text x="586" y="371" text-anchor="middle" font-size="11" fill="#0f6e56">Catalyst 3560</text>
<text x="586" y="387" text-anchor="middle" font-size="11" fill="#0f6e56">.51–.54 · SSH · AAA</text>

<!-- R1 serial to R2 -->
<line x1="108" y1="398" x2="108" y2="446" stroke="#888780" stroke-width="1" stroke-dasharray="5,3" marker-end="url(#arrow)"/>
<text x="120" y="426" font-size="11" fill="#5f5e5a">Serial DCE</text>
<text x="188" y="418" text-anchor="middle" font-size="11" fill="#5f5e5a">Serial: R1→R2/R3/R4</text>

<!-- R2 -->
<rect x="30" y="446" width="156" height="64" rx="8" fill="#eeedfe" stroke="#534ab7" stroke-width="0.5"/>
<text x="108" y="466" text-anchor="middle" font-size="13" font-weight="600" fill="#3c3489">R2 — Cisco 2811</text>
<text x="108" y="483" text-anchor="middle" font-size="11" fill="#534ab7">10.1.12.2</text>
<text x="108" y="499" text-anchor="middle" font-size="11" fill="#534ab7">BGP AS2 · Serial only</text>

<!-- VLAN 20 zone -->
<rect x="20" y="540" width="295" height="185" rx="10" fill="none" stroke="#185fa5" stroke-width="1" stroke-dasharray="6,3" opacity="0.6"/>
<text x="32" y="558" font-size="11" fill="#185fa5">VLAN 20 — Servers (10.20.0.0/24)</text>

<!-- ESXi -->
<rect x="34" y="566" width="130" height="64" rx="8" fill="#e6f1fb" stroke="#185fa5" stroke-width="0.5"/>
<text x="99" y="586" text-anchor="middle" font-size="13" font-weight="600" fill="#0c447c">ESXi S2</text>
<text x="99" y="603" text-anchor="middle" font-size="11" fill="#185fa5">Dell R630</text>
<text x="99" y="619" text-anchor="middle" font-size="11" fill="#185fa5">192.168.168.16</text>

<!-- S1 Windows -->
<rect x="178" y="566" width="124" height="64" rx="8" fill="#e6f1fb" stroke="#185fa5" stroke-width="0.5"/>
<text x="240" y="586" text-anchor="middle" font-size="13" font-weight="600" fill="#0c447c">S1 Windows</text>
<text x="240" y="603" text-anchor="middle" font-size="11" fill="#185fa5">Dell R630</text>
<text x="240" y="619" text-anchor="middle" font-size="11" fill="#185fa5">192.168.168.100</text>

<!-- Zabbix VM -->
<rect x="34" y="644" width="268" height="68" rx="8" fill="#eeedfe" stroke="#534ab7" stroke-width="0.5"/>
<text x="168" y="664" text-anchor="middle" font-size="13" font-weight="600" fill="#3c3489">Zabbix VM — Ubuntu 24.04</text>
<text x="168" y="681" text-anchor="middle" font-size="11" fill="#534ab7">10.20.0.10 · Zabbix 7.0 LTS</text>
<text x="168" y="697" text-anchor="middle" font-size="11" fill="#534ab7">14 hosts · 2,295+ items · 1,263 triggers</text>

<!-- Core to servers -->
<line x1="270" y1="276" x2="168" y2="540" stroke="#185fa5" stroke-width="1" stroke-dasharray="4,3" marker-end="url(#arrow)"/>

<!-- VLAN 40 Storage -->
<rect x="330" y="540" width="200" height="120" rx="10" fill="none" stroke="#3b6d11" stroke-width="1" stroke-dasharray="6,3" opacity="0.6"/>
<text x="342" y="558" font-size="11" fill="#3b6d11">VLAN 40 — Storage (10.40.0.0/24)</text>

<!-- NAS2 -->
<rect x="344" y="566" width="172" height="64" rx="8" fill="#eaf3de" stroke="#3b6d11" stroke-width="0.5"/>
<text x="430" y="586" text-anchor="middle" font-size="13" font-weight="600" fill="#27500a">QNAP NAS2</text>
<text x="430" y="603" text-anchor="middle" font-size="11" fill="#3b6d11">TS-832PXU-RP · RAID 6</text>
<text x="430" y="619" text-anchor="middle" font-size="11" fill="#3b6d11">192.168.168.41 · iSCSI</text>

<!-- Core to storage -->
<line x1="400" y1="276" x2="420" y2="540" stroke="#3b6d11" stroke-width="1" stroke-dasharray="4,3" marker-end="url(#arrow)"/>

<!-- iSCSI link -->
<line x1="164" y1="598" x2="342" y2="598" stroke="#3b6d11" stroke-width="1" stroke-dasharray="3,3" marker-end="url(#arrow)"/>
<text x="253" y="590" text-anchor="middle" font-size="11" fill="#3b6d11">iSCSI · CHAP</text>

<!-- VLAN 30 Camera -->
<rect x="540" y="540" width="128" height="185" rx="10" fill="none" stroke="#993c1d" stroke-width="1" stroke-dasharray="6,3" opacity="0.6"/>
<text x="552" y="558" font-size="11" fill="#993c1d">VLAN 30 — Cameras</text>
<text x="552" y="572" font-size="11" font-weight="600" fill="#993c1d">ISOLATED</text>

<!-- Cameras -->
<rect x="552" y="584" width="104" height="64" rx="8" fill="#faece7" stroke="#993c1d" stroke-width="0.5"/>
<text x="604" y="604" text-anchor="middle" font-size="13" font-weight="600" fill="#712b13">7× Cameras</text>
<text x="604" y="621" text-anchor="middle" font-size="11" fill="#993c1d">Reolink PoE</text>
<text x="604" y="637" text-anchor="middle" font-size="11" fill="#993c1d">10.30.0.13–19</text>

<!-- NVR -->
<rect x="552" y="662" width="104" height="50" rx="8" fill="#faece7" stroke="#993c1d" stroke-width="0.5"/>
<text x="604" y="682" text-anchor="middle" font-size="13" font-weight="600" fill="#712b13">Reolink NVR</text>
<text x="604" y="699" text-anchor="middle" font-size="11" fill="#993c1d">10.30.0.20</text>

<!-- Core to cameras -->
<line x1="460" y1="276" x2="600" y2="540" stroke="#993c1d" stroke-width="1" stroke-dasharray="4,3" marker-end="url(#arrow)"/>

<!-- Legend -->
<rect x="20" y="748" width="640" height="100" rx="8" fill="none" stroke="#b4b2a9" stroke-width="0.5"/>
<text x="34" y="768" font-size="12" font-weight="600" fill="#444441">Legend</text>
<line x1="34" y1="790" x2="80" y2="790" stroke="#444441" stroke-width="1.5" marker-end="url(#arrow)"/>
<text x="88" y="794" font-size="11" fill="#444441">Ethernet / Trunk</text>
<line x1="210" y1="790" x2="256" y2="790" stroke="#444441" stroke-width="1" stroke-dasharray="5,3" marker-end="url(#arrow)"/>
<text x="264" y="794" font-size="11" fill="#444441">Serial link (DCE)</text>
<line x1="390" y1="790" x2="436" y2="790" stroke="#3b6d11" stroke-width="1" stroke-dasharray="3,3" marker-end="url(#arrow)"/>
<text x="444" y="794" font-size="11" fill="#444441">iSCSI / Storage</text>
<rect x="34" y="808" width="12" height="12" rx="2" fill="#e6f1fb" stroke="#185fa5" stroke-width="0.5"/>
<text x="52" y="819" font-size="11" fill="#444441">Cisco routers</text>
<rect x="150" y="808" width="12" height="12" rx="2" fill="#e1f5ee" stroke="#0f6e56" stroke-width="0.5"/>
<text x="168" y="819" font-size="11" fill="#444441">Cisco switches</text>
<rect x="280" y="808" width="12" height="12" rx="2" fill="#eeedfe" stroke="#534ab7" stroke-width="0.5"/>
<text x="298" y="819" font-size="11" fill="#444441">Monitoring / BGP-only</text>
<rect x="440" y="808" width="12" height="12" rx="2" fill="#faece7" stroke="#993c1d" stroke-width="0.5"/>
<text x="458" y="819" font-size="11" fill="#444441">Camera VLAN (isolated)</text>
<rect x="590" y="808" width="12" height="12" rx="2" fill="#eaf3de" stroke="#3b6d11" stroke-width="0.5"/>
<text x="608" y="819" font-size="11" fill="#444441">Storage</text>

<!-- Footer -->
<text x="340" y="870" text-anchor="middle" font-size="11" fill="#888780">Curtis · CCNA · Home Lab Network Engineering · March 2026 · github.com/curtis-neteng/homelab</text>
</svg>
